ffmpeg version 7.1.1-essentials_build-www.gyan.dev Copyright (c) 2000-2025 the FFmpeg developers
  built with gcc 14.2.0 (Rev1, Built by MSYS2 project)
  configuration: --enable-gpl --enable-version3 --enable-static --disable-w32threads --disable-autodetect --enable-fontconfig --enable-iconv --enable-gnutls --enable-libxml2 --enable-gmp --enable-bzlib --enable-lzma --enable-zlib --enable-libsrt --enable-libssh --enable-libzmq --enable-avisynth --enable-sdl2 --enable-libwebp --enable-libx264 --enable-libx265 --enable-libxvid --enable-libaom --enable-libopenjpeg --enable-libvpx --enable-mediafoundation --enable-libass --enable-libfreetype --enable-libfribidi --enable-libharfbuzz --enable-libvidstab --enable-libvmaf --enable-libzimg --enable-amf --enable-cuda-llvm --enable-cuvid --enable-dxva2 --enable-d3d11va --enable-d3d12va --enable-ffnvcodec --enable-libvpl --enable-nvdec --enable-nvenc --enable-vaapi --enable-libgme --enable-libopenmpt --enable-libopencore-amrwb --enable-libmp3lame --enable-libtheora --enable-libvo-amrwbenc --enable-libgsm --enable-libopencore-amrnb --enable-libopus --enable-libspeex --enable-libvorbis --enable-librubberband
  libavutil      59. 39.100 / 59. 39.100
  libavcodec     61. 19.101 / 61. 19.101
  libavformat    61.  7.100 / 61.  7.100
  libavdevice    61.  3.100 / 61.  3.100
  libavfilter    10.  4.100 / 10.  4.100
  libswscale      8.  3.100 /  8.  3.100
  libswresample   5.  3.100 /  5.  3.100
  libpostproc    58.  3.100 / 58.  3.100
Input #0, mov,mp4,m4a,3gp,3g2,mj2, from 'assets\background\bgGaneshwithoutaudio.mp4':
  Metadata:
    major_brand     : isom
    minor_version   : 512
    compatible_brands: isomiso2avc1mp41
    encoder         : Lavf61.7.100
  Duration: 00:00:08.13, start: 0.000000, bitrate: 225 kb/s
  Stream #0:0[0x1](und): Video: h264 (High) (avc1 / 0x31637661), yuv420p(tv, bt709, progressive), 1280x720, 223 kb/s, 15 fps, 15 tbr, 15360 tbn (default)
      Metadata:
        handler_name    : VideoHandler
        vendor_id       : [0][0][0][0]
        encoder         : Lavc61.19.101 libx264
Input #1, concat, from 'playlist/playlist.txt':
  Duration: N/A, start: -0.025057, bitrate: 125 kb/s
  Stream #1:0: Audio: mp3 (mp3float), 44100 Hz, stereo, fltp, 125 kb/s
      Metadata:
        encoder         : Lavc60.31
Stream mapping:
  Stream #0:0 -> #0:0 (copy)
  Stream #1:0 -> #0:1 (mp3 (mp3float) -> aac (native))
Press [q] to stop, [?] for help
Output #0, flv, to 'rtmp://a.rtmp.youtube.com/live2/m104-c4t3-6823-6a10-0beu':
  Metadata:
    major_brand     : isom
    minor_version   : 512
    compatible_brands: isomiso2avc1mp41
    encoder         : Lavf61.7.100
  Stream #0:0(und): Video: h264 (High) ([7][0][0][0] / 0x0007), yuv420p(tv, bt709, progressive), 1280x720, q=2-31, 223 kb/s, 15 fps, 15 tbr, 1k tbn (default)
      Metadata:
        handler_name    : VideoHandler
        vendor_id       : [0][0][0][0]
        encoder         : Lavc61.19.101 libx264
  Stream #0:1: Audio: aac (LC) ([10][0][0][0] / 0x000A), 44100 Hz, stereo, fltp, 96 kb/s
      Metadata:
        encoder         : Lavc61.19.101 aac
frame=   18 fps=0.0 q=-1.0 size=      58KiB time=00:00:01.06 bitrate= 443.4kbits/s speed=2.03x    frame=   26 fps= 25 q=-1.0 size=      73KiB time=00:00:01.60 bitrate= 372.1kbits/s speed=1.54x    frame=   33 fps= 21 q=-1.0 size=      90KiB time=00:00:02.06 bitrate= 357.7kbits/s speed=1.34x    frame=   41 fps= 20 q=-1.0 size=     109KiB time=00:00:02.60 bitrate= 344.4kbits/s speed=1.26x    frame=   49 fps= 19 q=-1.0 size=     132KiB time=00:00:03.06 bitrate= 352.1kbits/s speed=1.19x    frame=   56 fps= 18 q=-1.0 size=     151KiB time=00:00:03.60 bitrate= 344.4kbits/s speed=1.16x    frame=   64 fps= 18 q=-1.0 size=     177KiB time=00:00:04.13 bitrate= 351.0kbits/s speed=1.15x    frame=   72 fps= 17 q=-1.0 size=     202KiB time=00:00:04.66 bitrate= 354.5kbits/s speed=1.13x    frame=   80 fps= 17 q=-1.0 size=     227KiB time=00:00:05.20 bitrate= 356.9kbits/s speed=1.12x    frame=   87 fps= 17 q=-1.0 size=     244KiB time=00:00:05.66 bitrate= 352.4kbits/s speed= 1.1x    frame=   95 fps= 17 q=-1.0 size=     266KiB time=00:00:06.20 bitrate= 351.6kbits/s speed=1.09x    frame=  103 fps= 17 q=-1.0 size=     282KiB time=00:00:06.73 bitrate= 343.6kbits/s speed=1.09x    frame=  111 fps= 17 q=-1.0 size=     301KiB time=00:00:07.20 bitrate= 343.0kbits/s speed=1.07x    frame=  119 fps= 16 q=-1.0 size=     318KiB time=00:00:07.80 bitrate= 333.9kbits/s speed=1.08x    frame=  126 fps= 16 q=-1.0 size=     362KiB time=00:00:08.26 bitrate= 359.2kbits/s speed=1.07x    frame=  134 fps= 16 q=-1.0 size=     373KiB time=00:00:08.80 bitrate= 346.9kbits/s speed=1.06x    frame=  142 fps= 16 q=-1.0 size=     388KiB time=00:00:09.33 bitrate= 340.5kbits/s speed=1.06x    frame=  150 fps= 16 q=-1.0 size=     403KiB time=00:00:09.86 bitrate= 334.8kbits/s speed=1.06x    frame=  158 fps= 16 q=-1.0 size=     422KiB time=00:00:10.40 bitrate= 332.6kbits/s speed=1.06x    frame=  165 fps= 16 q=-1.0 size=     444KiB time=00:00:10.86 bitrate= 334.6kbits/s speed=1.05x    frame=  173 fps= 16 q=-1.0 size=     461KiB time=00:00:11.40 bitrate= 331.6kbits/s speed=1.05x    frame=  181 fps= 16 q=-1.0 size=     484KiB time=00:00:11.93 bitrate= 332.0kbits/s speed=1.05x    frame=  188 fps= 16 q=-1.0 size=     508KiB time=00:00:12.40 bitrate= 335.5kbits/s speed=1.04x    frame=  196 fps= 16 q=-1.0 size=     532KiB time=00:00:12.93 bitrate= 337.0kbits/s speed=1.04x    frame=  204 fps= 16 q=-1.0 size=     556KiB time=00:00:13.46 bitrate= 338.5kbits/s speed=1.04x    frame=  212 fps= 16 q=-1.0 size=     579KiB time=00:00:14.00 bitrate= 338.7kbits/s speed=1.04x    frame=  219 fps= 16 q=-1.0 size=     598KiB time=00:00:14.46 bitrate= 338.8kbits/s speed=1.04x    frame=  227 fps= 16 q=-1.0 size=     618KiB time=00:00:15.00 bitrate= 337.2kbits/s speed=1.04x    frame=  235 fps= 16 q=-1.0 size=     635KiB time=00:00:15.53 bitrate= 334.7kbits/s speed=1.04x    frame=  243 fps= 16 q=-1.0 size=     648KiB time=00:00:16.00 bitrate= 331.6kbits/s speed=1.03x    frame=  251 fps= 16 q=-1.0 size=     692KiB time=00:00:16.60 bitrate= 341.5kbits/s speed=1.03x    frame=  259 fps= 16 q=-1.0 size=     704KiB time=00:00:17.13 bitrate= 336.6kbits/s speed=1.03x    frame=  266 fps= 16 q=-1.0 size=     718KiB time=00:00:17.60 bitrate= 334.0kbits/s speed=1.03x    frame=  274 fps= 16 q=-1.0 size=     733KiB time=00:00:18.13 bitrate= 331.1kbits/s speed=1.03x    frame=  282 fps= 16 q=-1.0 size=     754KiB time=00:00:18.66 bitrate= 330.8kbits/s speed=1.03x    frame=  289 fps= 16 q=-1.0 size=     773KiB time=00:00:19.13 bitrate= 330.8kbits/s speed=1.03x    frame=  297 fps= 16 q=-1.0 size=     795KiB time=00:00:19.66 bitrate= 331.2kbits/s speed=1.03x    frame=  305 fps= 16 q=-1.0 size=     819KiB time=00:00:20.20 bitrate= 332.0kbits/s speed=1.03x    frame=  313 fps= 16 q=-1.0 size=     845KiB time=00:00:20.73 bitrate= 333.7kbits/s speed=1.03x    frame=  320 fps= 15 q=-1.0 size=     866KiB time=00:00:21.20 bitrate= 334.5kbits/s speed=1.02x    frame=  328 fps= 15 q=-1.0 size=     891KiB time=00:00:21.73 bitrate= 335.8kbits/s speed=1.02x    frame=  336 fps= 15 q=-1.0 size=     914KiB time=00:00:22.26 bitrate= 336.3kbits/s speed=1.03x    frame=  343 fps= 15 q=-1.0 size=     927KiB time=00:00:22.73 bitrate= 334.0kbits/s speed=1.02x    frame=  351 fps= 15 q=-1.0 size=     945KiB time=00:00:23.26 bitrate= 332.6kbits/s speed=1.02x    frame=  359 fps= 15 q=-1.0 size=     967KiB time=00:00:23.80 bitrate= 332.8kbits/s speed=1.02x    frame=  367 fps= 15 q=-1.0 size=     976KiB time=00:00:24.26 bitrate= 329.4kbits/s speed=1.02x    frame=  374 fps= 15 q=-1.0 size=    1019KiB time=00:00:24.80 bitrate= 336.6kbits/s speed=1.02x    frame=  382 fps= 15 q=-1.0 size=    1033KiB time=00:00:25.33 bitrate= 334.0kbits/s speed=1.02x    frame=  390 fps= 15 q=-1.0 size=    1048KiB time=00:00:25.86 bitrate= 331.8kbits/s speed=1.02x    frame=  398 fps= 15 q=-1.0 size=    1065KiB time=00:00:26.40 bitrate= 330.4kbits/s speed=1.02x    frame=  405 fps= 15 q=-1.0 size=    1080KiB time=00:00:26.86 bitrate= 329.3kbits/s speed=1.02x    frame=  413 fps= 15 q=-1.0 size=    1102KiB time=00:00:27.40 bitrate= 329.5kbits/s speed=1.02x    frame=  421 fps= 15 q=-1.0 size=    1125KiB time=00:00:27.93 bitrate= 329.8kbits/s speed=1.02x    frame=  429 fps= 15 q=-1.0 size=    1149KiB time=00:00:28.40 bitrate= 331.3kbits/s speed=1.02x    frame=  436 fps= 15 q=-1.0 size=    1174KiB time=00:00:28.93 bitrate= 332.5kbits/s speed=1.02x    frame=  444 fps= 15 q=-1.0 size=    1196KiB time=00:00:29.46 bitrate= 332.4kbits/s speed=1.02x    frame=  452 fps= 15 q=-1.0 size=    1220KiB time=00:00:30.00 bitrate= 333.3kbits/s speed=1.02x    frame=  460 fps= 15 q=-1.0 size=    1243KiB time=00:00:30.53 bitrate= 333.5kbits/s speed=1.02x    frame=  467 fps= 15 q=-1.0 size=    1258KiB time=00:00:31.00 bitrate= 332.5kbits/s speed=1.02x    frame=  475 fps= 15 q=-1.0 size=    1277KiB time=00:00:31.53 bitrate= 331.8kbits/s speed=1.02x    frame=  483 fps= 15 q=-1.0 size=    1294KiB time=00:00:32.00 bitrate= 331.2kbits/s speed=1.02x    frame=  490 fps= 15 q=-1.0 size=    1338KiB time=00:00:32.40 bitrate= 338.3kbits/s speed=1.01x    frame=  498 fps= 15 q=-1.0 size=    1348KiB time=00:00:33.06 bitrate= 334.0kbits/s speed=1.02x    frame=  506 fps= 15 q=-1.0 size=    1362KiB time=00:00:33.60 bitrate= 332.0kbits/s speed=1.02x    frame=  514 fps= 15 q=-1.0 size=    1377KiB time=00:00:34.06 bitrate= 331.0kbits/s speed=1.01x    frame=  521 fps= 15 q=-1.0 size=    1392KiB time=00:00:34.60 bitrate= 329.7kbits/s speed=1.01x    frame=  529 fps= 15 q=-1.0 size=    1413KiB time=00:00:35.13 bitrate= 329.5kbits/s speed=1.02x    frame=  537 fps= 15 q=-1.0 size=    1435KiB time=00:00:35.66 bitrate= 329.7kbits/s speed=1.02x    frame=  545 fps= 15 q=-1.0 size=    1458KiB time=00:00:36.20 bitrate= 329.9kbits/s speed=1.02x    frame=  552 fps= 15 q=-1.0 size=    1481KiB time=00:00:36.66 bitrate= 330.9kbits/s speed=1.01x    frame=  560 fps= 15 q=-1.0 size=    1506KiB time=00:00:37.20 bitrate= 331.6kbits/s speed=1.01x    frame=  568 fps= 15 q=-1.0 size=    1532KiB time=00:00:37.73 bitrate= 332.7kbits/s speed=1.01x    frame=  576 fps= 15 q=-1.0 size=    1553KiB time=00:00:38.26 bitrate= 332.5kbits/s speed=1.01x    frame=  583 fps= 15 q=-1.0 size=    1570KiB time=00:00:38.73 bitrate= 332.0kbits/s speed=1.01x    frame=  591 fps= 15 q=-1.0 size=    1586KiB time=00:00:39.26 bitrate= 330.9kbits/s speed=1.01x    frame=  599 fps= 15 q=-1.0 size=    1605KiB time=00:00:39.80 bitrate= 330.4kbits/s speed=1.01x    frame=  607 fps= 15 q=-1.0 size=    1622KiB time=00:00:40.33 bitrate= 329.4kbits/s speed=1.01x    frame=  615 fps= 15 q=-1.0 size=    1667KiB time=00:00:40.86 bitrate= 334.1kbits/s speed=1.01x    frame=  622 fps= 15 q=-1.0 size=    1676KiB time=00:00:41.33 bitrate= 332.2kbits/s speed=1.01x    frame=  630 fps= 15 q=-1.0 size=    1692KiB time=00:00:41.86 bitrate= 331.0kbits/s speed=1.01x    frame=  638 fps= 15 q=-1.0 size=    1707KiB time=00:00:42.40 bitrate= 329.7kbits/s speed=1.01x    frame=  645 fps= 15 q=-1.0 size=    1721KiB time=00:00:42.86 bitrate= 328.9kbits/s speed=1.01x    frame=  653 fps= 15 q=-1.0 size=    1743KiB time=00:00:43.40 bitrate= 328.9kbits/s speed=1.01x    frame=  661 fps= 15 q=-1.0 size=    1765KiB time=00:00:43.93 bitrate= 329.1kbits/s speed=1.01x    frame=  668 fps= 15 q=-1.0 size=    1787KiB time=00:00:44.40 bitrate= 329.7kbits/s speed=1.01x    frame=  676 fps= 15 q=-1.0 size=    1811KiB time=00:00:44.93 bitrate= 330.2kbits/s speed=1.01x    frame=  684 fps= 15 q=-1.0 size=    1836KiB time=00:00:45.46 bitrate= 330.7kbits/s speed=1.01x    frame=  692 fps= 15 q=-1.0 size=    1860KiB time=00:00:46.00 bitrate= 331.2kbits/s speed=1.01x    frame=  700 fps= 15 q=-1.0 size=    1882KiB time=00:00:46.46 bitrate= 331.9kbits/s speed=1.01x    frame=  707 fps= 15 q=-1.0 size=    1902KiB time=00:00:47.00 bitrate= 331.5kbits/s speed=1.01x    frame=  715 fps= 15 q=-1.0 size=    1920KiB time=00:00:47.53 bitrate= 330.9kbits/s speed=1.01x    frame=  723 fps= 15 q=-1.0 size=    1938KiB time=00:00:48.06 bitrate= 330.3kbits/s speed=1.01x    frame=  730 fps= 15 q=-1.0 size=    1951KiB time=00:00:48.53 bitrate= 329.4kbits/s speed=1.01x    frame=  738 fps= 15 q=-1.0 size=    1994KiB time=00:00:49.06 bitrate= 332.9kbits/s speed=1.01x    frame=  746 fps= 15 q=-1.0 size=    2006KiB time=00:00:49.60 bitrate= 331.3kbits/s speed=1.01x    frame=  754 fps= 15 q=-1.0 size=    2021KiB time=00:00:50.13 bitrate= 330.3kbits/s speed=1.01x    frame=  761 fps= 15 q=-1.0 size=    2035KiB time=00:00:50.60 bitrate= 329.5kbits/s speed=1.01x    frame=  769 fps= 15 q=-1.0 size=    2054KiB time=00:00:51.13 bitrate= 329.1kbits/s speed=1.01x    frame=  777 fps= 15 q=-1.0 size=    2076KiB time=00:00:51.66 bitrate= 329.2kbits/s speed=1.01x    frame=  785 fps= 15 q=-1.0 size=    2101KiB time=00:00:52.20 bitrate= 329.7kbits/s speed=1.01x    frame=  792 fps= 15 q=-1.0 size=    2120KiB time=00:00:52.66 bitrate= 329.7kbits/s speed=1.01x    frame=  800 fps= 15 q=-1.0 size=    2146KiB time=00:00:53.20 bitrate= 330.4kbits/s speed=1.01x    frame=  808 fps= 15 q=-1.0 size=    2170KiB time=00:00:53.73 bitrate= 330.8kbits/s speed=1.01x    frame=  816 fps= 15 q=-1.0 size=    2195KiB time=00:00:54.26 bitrate= 331.3kbits/s speed=1.01x    frame=  823 fps= 15 q=-1.0 size=    2210KiB time=00:00:54.73 bitrate= 330.8kbits/s speed=1.01x    frame=  831 fps= 15 q=-1.0 size=    2231KiB time=00:00:55.26 bitrate= 330.7kbits/s speed=1.01x    frame=  838 fps= 15 q=-1.0 size=    2248KiB time=00:00:55.73 bitrate= 330.4kbits/s speed=1.01x    frame=  847 fps= 15 q=-1.0 size=    2267KiB time=00:00:56.33 bitrate= 329.7kbits/s speed=1.01x    frame=  854 fps= 15 q=-1.0 size=    2279KiB time=00:00:56.80 bitrate= 328.7kbits/s speed=1.01x    frame=  862 fps= 15 q=-1.0 size=    2323KiB time=00:00:57.33 bitrate= 332.0kbits/s speed=1.01x    frame=  870 fps= 15 q=-1.0 size=    2339KiB time=00:00:57.86 bitrate= 331.1kbits/s speed=1.01x    frame=  877 fps= 15 q=-1.0 size=    2350KiB time=00:00:58.33 bitrate= 330.0kbits/s speed=1.01x    frame=  885 fps= 15 q=-1.0 size=    2365KiB time=00:00:58.86 bitrate= 329.1kbits/s speed=1.01x    frame=  893 fps= 15 q=-1.0 size=    2385KiB time=00:00:59.40 bitrate= 328.9kbits/s speed=1.01x    frame=  901 fps= 15 q=-1.0 size=    2407KiB time=00:00:59.86 bitrate= 329.3kbits/s speed=1.01x    frame=  909 fps= 15 q=-1.0 size=    2429KiB time=00:01:00.40 bitrate= 329.5kbits/s speed=1.01x    frame=  916 fps= 15 q=-1.0 size=    2451KiB time=00:01:00.93 bitrate= 329.6kbits/s speed=1.01x    frame=  924 fps= 15 q=-1.0 size=    2477KiB time=00:01:01.46 bitrate= 330.1kbits/s speed=1.01x    frame=  932 fps= 15 q=-1.0 size=    2500KiB time=00:01:02.00 bitrate= 330.3kbits/s speed=1.01x    frame=  939 fps= 15 q=-1.0 size=    2523KiB time=00:01:02.46 bitrate= 330.9kbits/s speed=1.01x    frame=  947 fps= 15 q=-1.0 size=    2548KiB time=00:01:03.00 bitrate= 331.3kbits/s speed=1.01x    frame=  955 fps= 15 q=-1.0 size=    2563KiB time=00:01:03.53 bitrate= 330.5kbits/s speed=1.01x    frame=  962 fps= 15 q=-1.0 size=    2580KiB time=00:01:04.00 bitrate= 330.3kbits/s speed=1.01x    frame=  970 fps= 15 q=-1.0 size=    2597KiB time=00:01:04.53 bitrate= 329.7kbits/s speed=1.01x    frame=  978 fps= 15 q=-1.0 size=    2643KiB time=00:01:04.93 bitrate= 333.4kbits/s speed=1.01x    frame=  986 fps= 15 q=-1.0 size=    2653KiB time=00:01:05.60 bitrate= 331.3kbits/s speed=1.01x    frame=  993 fps= 15 q=-1.0 size=    2665KiB time=00:01:06.06 bitrate= 330.4kbits/s speed=1.01x    frame= 1001 fps= 15 q=-1.0 size=    2680KiB time=00:01:06.60 bitrate= 329.6kbits/s speed=1.01x    frame= 1009 fps= 15 q=-1.0 size=    2697KiB time=00:01:07.13 bitrate= 329.1kbits/s speed=1.01x    frame= 1017 fps= 15 q=-1.0 size=    2718KiB time=00:01:07.66 bitrate= 329.1kbits/s speed=1.01x    frame= 1024 fps= 15 q=-1.0 size=    2741KiB time=00:01:08.13 bitrate= 329.5kbits/s speed=1.01x    frame= 1032 fps= 15 q=-1.0 size=    2760KiB time=00:01:08.66 bitrate= 329.3kbits/s speed=1.01x    frame= 1040 fps= 15 q=-1.0 size=    2786KiB time=00:01:09.20 bitrate= 329.8kbits/s speed=1.01x    frame= 1047 fps= 15 q=-1.0 size=    2805KiB time=00:01:09.66 bitrate= 329.9kbits/s speed=1.01x    frame= 1055 fps= 15 q=-1.0 size=    2828KiB time=00:01:10.20 bitrate= 330.0kbits/s speed=1.01x    frame= 1063 fps= 15 q=-1.0 size=    2853KiB time=00:01:10.73 bitrate= 330.4kbits/s speed=1.01x    frame= 1071 fps= 15 q=-1.0 size=    2875KiB time=00:01:11.26 bitrate= 330.5kbits/s speed=1.01x    frame= 1079 fps= 15 q=-1.0 size=    2891KiB time=00:01:11.73 bitrate= 330.2kbits/s speed=1.01x    frame= 1086 fps= 15 q=-1.0 size=    2909KiB time=00:01:12.26 bitrate= 329.8kbits/s speed=1.01x    frame= 1094 fps= 15 q=-1.0 size=    2926KiB time=00:01:12.80 bitrate= 329.2kbits/s speed=1.01x    frame= 1102 fps= 15 q=-1.0 size=    2971KiB time=00:01:13.33 bitrate= 331.9kbits/s speed=1.01x    frame= 1109 fps= 15 q=-1.0 size=    2980KiB time=00:01:13.80 bitrate= 330.8kbits/s speed=1.01x    frame= 1117 fps= 15 q=-1.0 size=    2994KiB time=00:01:14.33 bitrate= 329.9kbits/s speed=1.01x    frame= 1125 fps= 15 q=-1.0 size=    3009KiB time=00:01:14.86 bitrate= 329.2kbits/s speed=1.01x    frame= 1132 fps= 15 q=-1.0 size=    3025KiB time=00:01:15.33 bitrate= 328.9kbits/s speed=1.01x    frame= 1140 fps= 15 q=-1.0 size=    3046KiB time=00:01:15.86 bitrate= 328.9kbits/s speed=1.01x    frame= 1148 fps= 15 q=-1.0 size=    3068KiB time=00:01:16.40 bitrate= 329.0kbits/s speed=1.01x    frame= 1156 fps= 15 q=-1.0 size=    3091KiB time=00:01:16.93 bitrate= 329.1kbits/s speed=1.01x    frame= 1164 fps= 15 q=-1.0 size=    3117KiB time=00:01:17.46 bitrate= 329.6kbits/s speed=1.01x    frame= 1172 fps= 15 q=-1.0 size=    3141KiB time=00:01:18.00 bitrate= 329.9kbits/s speed=1.01x    frame= 1179 fps= 15 q=-1.0 size=    3164KiB time=00:01:18.46 bitrate= 330.3kbits/s speed=1.01x    frame= 1187 fps= 15 q=-1.0 size=    3186KiB time=00:01:19.00 bitrate= 330.4kbits/s speed=1.01x    frame= 1195 fps= 15 q=-1.0 size=    3207KiB time=00:01:19.53 bitrate= 330.4kbits/s speed=1.01x    frame= 1202 fps= 15 q=-1.0 size=    3224KiB time=00:01:20.00 bitrate= 330.1kbits/s speed=1.01x    frame= 1210 fps= 15 q=-1.0 size=    3244KiB time=00:01:20.53 bitrate= 329.9kbits/s speed=1.01x    frame= 1218 fps= 15 q=-1.0 size=    3255KiB time=00:01:21.06 bitrate= 329.0kbits/s speed=1.01x    frame= 1226 fps= 15 q=-1.0 size=    3299KiB time=00:01:21.60 bitrate= 331.2kbits/s speed=1.01x    frame= 1233 fps= 15 q=-1.0 size=    3309KiB time=00:01:22.06 bitrate= 330.3kbits/s speed=1.01x    frame= 1241 fps= 15 q=-1.0 size=    3325KiB time=00:01:22.60 bitrate= 329.8kbits/s speed=1.01x    frame= 1249 fps= 15 q=-1.0 size=    3340KiB time=00:01:23.13 bitrate= 329.2kbits/s speed=1.01x    frame= 1257 fps= 15 q=-1.0 size=    3360KiB time=00:01:23.60 bitrate= 329.2kbits/s speed=1.01x    frame= 1264 fps= 15 q=-1.0 size=    3379KiB time=00:01:24.20 bitrate= 328.7kbits/s speed=1.01x    frame= 1272 fps= 15 q=-1.0 size=    3401KiB time=00:01:24.66 bitrate= 329.1kbits/s speed=1.01x    frame= 1280 fps= 15 q=-1.0 size=    3425KiB time=00:01:25.20 bitrate= 329.3kbits/s speed=1.01x    frame= 1287 fps= 15 q=-1.0 size=    3445KiB time=00:01:25.66 bitrate= 329.4kbits/s speed=1.01x    frame= 1295 fps= 15 q=-1.0 size=    3469KiB time=00:01:26.20 bitrate= 329.7kbits/s speed=1.01x    frame= 1303 fps= 15 q=-1.0 size=    3493KiB time=00:01:26.73 bitrate= 329.9kbits/s speed=1.01x    frame= 1311 fps= 15 q=-1.0 size=    3523KiB time=00:01:27.26 bitrate= 330.7kbits/s speed=1.01x    frame= 1318 fps= 15 q=-1.0 size=    3535KiB time=00:01:27.73 bitrate= 330.1kbits/s speed=1.01x    frame= 1326 fps= 15 q=-1.0 size=    3553KiB time=00:01:28.26 bitrate= 329.8kbits/s speed=1.01x    frame= 1334 fps= 15 q=-1.0 size=    3571KiB time=00:01:28.80 bitrate= 329.5kbits/s speed=1.01x    frame= 1342 fps= 15 q=-1.0 size=    3584KiB time=00:01:29.26 bitrate= 328.9kbits/s speed=1.01x    frame= 1350 fps= 15 q=-1.0 size=    3628KiB time=00:01:29.86 bitrate= 330.7kbits/s speed=1.01x    frame= 1357 fps= 15 q=-1.0 size=    3639KiB time=00:01:30.33 bitrate= 330.0kbits/s speed=1.01x    frame= 1365 fps= 15 q=-1.0 size=    3654KiB time=00:01:30.86 bitrate= 329.4kbits/s speed=1.01x    frame= 1373 fps= 15 q=-1.0 size=    3670KiB time=00:01:31.40 bitrate= 328.9kbits/s speed=1.01x    frame= 1380 fps= 15 q=-1.0 size=    3687KiB time=00:01:31.86 bitrate= 328.8kbits/s speed=1.01x    frame= 1388 fps= 15 q=-1.0 size=    3709KiB time=00:01:32.40 bitrate= 328.9kbits/s speed=1.01x    frame= 1396 fps= 15 q=-1.0 size=    3732KiB time=00:01:32.93 bitrate= 329.0kbits/s speed=1.01x    frame= 1403 fps= 15 q=-1.0 size=    3754KiB time=00:01:33.40 bitrate= 329.2kbits/s speed=1.01x    frame= 1411 fps= 15 q=-1.0 size=    3782KiB time=00:01:33.93 bitrate= 329.8kbits/s speed=1.01x    frame= 1419 fps= 15 q=-1.0 size=    3803KiB time=00:01:34.46 bitrate= 329.8kbits/s speed=1.01x    frame= 1427 fps= 15 q=-1.0 size=    3828KiB time=00:01:35.00 bitrate= 330.1kbits/s speed=1.01x    frame= 1434 fps= 15 q=-1.0 size=    3849KiB time=00:01:35.46 bitrate= 330.3kbits/s speed=1.01x    frame= 1442 fps= 15 q=-1.0 size=    3866KiB time=00:01:36.00 bitrate= 329.9kbits/s speed=1.01x    frame= 1450 fps= 15 q=-1.0 size=    3885KiB time=00:01:36.53 bitrate= 329.7kbits/s speed=1.01x    frame= 1458 fps= 15 q=-1.0 size=    3902KiB time=00:01:37.06 bitrate= 329.3kbits/s speed=1.01x    frame= 1466 fps= 15 q=-1.0 size=    3947KiB time=00:01:37.46 bitrate= 331.8kbits/s speed=   1x    frame= 1473 fps= 15 q=-1.0 size=    3955KiB time=00:01:38.06 bitrate= 330.4kbits/s speed=1.01x    frame= 1481 fps= 15 q=-1.0 size=    3970KiB time=00:01:38.60 bitrate= 329.8kbits/s speed=1.01x    frame= 1488 fps= 15 q=-1.0 size=    3983KiB time=00:01:39.13 bitrate= 329.1kbits/s speed=1.01x    frame= 1497 fps= 15 q=-1.0 size=    4002KiB time=00:01:39.66 bitrate= 328.9kbits/s speed=1.01x    frame= 1504 fps= 15 q=-1.0 size=    4019KiB time=00:01:40.13 bitrate= 328.8kbits/s speed=1.01x    frame= 1512 fps= 15 q=-1.0 size=    4042KiB time=00:01:40.66 bitrate= 328.9kbits/s speed=1.01x    frame= 1520 fps= 15 q=-1.0 size=    4065KiB time=00:01:41.13 bitrate= 329.2kbits/s speed=   1x    frame= 1527 fps= 15 q=-1.0 size=    4084KiB time=00:01:41.66 bitrate= 329.0kbits/s speed=   1x    frame= 1535 fps= 15 q=-1.0 size=    4110KiB time=00:01:42.20 bitrate= 329.4kbits/s speed=1.01x    frame= 1543 fps= 15 q=-1.0 size=    4132KiB time=00:01:42.73 bitrate= 329.5kbits/s speed=1.01x    frame= 1551 fps= 15 q=-1.0 size=    4157KiB time=00:01:43.26 bitrate= 329.8kbits/s speed=1.01x    frame= 1558 fps= 15 q=-1.0 size=    4178KiB time=00:01:43.73 bitrate= 330.0kbits/s speed=   1x    frame= 1566 fps= 15 q=-1.0 size=    4196KiB time=00:01:44.26 bitrate= 329.6kbits/s speed=1.01x    frame= 1574 fps= 15 q=-1.0 size=    4214KiB time=00:01:44.80 bitrate= 329.4kbits/s speed=1.01x    frame= 1581 fps= 15 q=-1.0 size=    4229KiB time=00:01:45.26 bitrate= 329.1kbits/s speed=   1x    frame= 1589 fps= 15 q=-1.0 size=    4276KiB time=00:01:45.80 bitrate= 331.1kbits/s speed=   1x    frame= 1597 fps= 15 q=-1.0 size=    4285KiB time=00:01:46.33 bitrate= 330.1kbits/s speed=1.01x    frame= 1605 fps= 15 q=-1.0 size=    4299KiB time=00:01:46.80 bitrate= 329.7kbits/s speed=   1x    frame= 1613 fps= 15 q=-1.0 size=    4314KiB time=00:01:47.40 bitrate= 329.0kbits/s speed=1.01x    frame= 1620 fps= 15 q=-1.0 size=    4330KiB time=00:01:47.86 bitrate= 328.8kbits/s speed=   1x    frame= 1628 fps= 15 q=-1.0 size=    4351KiB time=00:01:48.40 bitrate= 328.8kbits/s speed=1.01x    frame= 1636 fps= 15 q=-1.0 size=    4373KiB time=00:01:48.86 bitrate= 329.1kbits/s speed=   1x    frame= 1643 fps= 15 q=-1.0 size=    4393KiB time=00:01:49.40 bitrate= 329.0kbits/s speed=   1x    frame= 1651 fps= 15 q=-1.0 size=    4419KiB time=00:01:49.93 bitrate= 329.3kbits/s speed=   1x    frame= 1659 fps= 15 q=-1.0 size=    4444KiB time=00:01:50.46 bitrate= 329.6kbits/s speed=   1x    frame= 1667 fps= 15 q=-1.0 size=    4468KiB time=00:01:50.93 bitrate= 330.0kbits/s speed=   1x    frame= 1674 fps= 15 q=-1.0 size=    4489KiB time=00:01:51.46 bitrate= 329.9kbits/s speed=   1x    frame= 1682 fps= 15 q=-1.0 size=    4510KiB time=00:01:52.00 bitrate= 329.9kbits/s speed=   1x    frame= 1690 fps= 15 q=-1.0 size=    4529KiB time=00:01:52.53 bitrate= 329.7kbits/s speed=   1x    frame= 1697 fps= 15 q=-1.0 size=    4541KiB time=00:01:53.00 bitrate= 329.2kbits/s speed=   1x    frame= 1705 fps= 15 q=-1.0 size=    4558KiB time=00:01:53.53 bitrate= 328.9kbits/s speed=   1x    frame= 1713 fps= 15 q=-1.0 size=    4603KiB time=00:01:54.06 bitrate= 330.6kbits/s speed=   1x    frame= 1721 fps= 15 q=-1.0 size=    4614KiB time=00:01:54.60 bitrate= 329.9kbits/s speed=   1x    frame= 1728 fps= 15 q=-1.0 size=    4628KiB time=00:01:55.06 bitrate= 329.5kbits/s speed=   1x    frame= 1736 fps= 15 q=-1.0 size=    4643KiB time=00:01:55.60 bitrate= 329.0kbits/s speed=   1x    frame= 1744 fps= 15 q=-1.0 size=    4664KiB time=00:01:56.13 bitrate= 329.0kbits/s speed=   1x    frame= 1752 fps= 15 q=-1.0 size=    4684KiB time=00:01:56.60 bitrate= 329.1kbits/s speed=   1x    frame= 1759 fps= 15 q=-1.0 size=    4701KiB time=00:01:57.13 bitrate= 328.8kbits/s speed=   1x    frame= 1767 fps= 15 q=-1.0 size=    4723KiB time=00:01:57.66 bitrate= 328.9kbits/s speed=   1x    frame= 1775 fps= 15 q=-1.0 size=    4750KiB time=00:01:58.20 bitrate= 329.2kbits/s speed=   1x    frame= 1782 fps= 15 q=-1.0 size=    4772KiB time=00:01:58.73 bitrate= 329.3kbits/s speed=   1x    frame= 1790 fps= 15 q=-1.0 size=    4797KiB time=00:01:59.20 bitrate= 329.6kbits/s speed=   1x    frame= 1798 fps= 15 q=-1.0 size=    4819KiB time=00:01:59.73 bitrate= 329.7kbits/s speed=   1x    frame= 1806 fps= 15 q=-1.0 size=    4840KiB time=00:02:00.26 bitrate= 329.7kbits/s speed=   1x    frame= 1813 fps= 15 q=-1.0 size=    4856KiB time=00:02:00.73 bitrate= 329.5kbits/s speed=   1x    frame= 1821 fps= 15 q=-1.0 size=    4876KiB time=00:02:01.26 bitrate= 329.4kbits/s speed=   1x    frame= 1829 fps= 15 q=-1.0 size=    4887KiB time=00:02:01.80 bitrate= 328.7kbits/s speed=   1x    frame= 1837 fps= 15 q=-1.0 size=    4932KiB time=00:02:02.33 bitrate= 330.3kbits/s speed=   1x    frame= 1845 fps= 15 q=-1.0 size=    4944KiB time=00:02:02.86 bitrate= 329.6kbits/s speed=   1x    frame= 1852 fps= 15 q=-1.0 size=    4957KiB time=00:02:03.33 bitrate= 329.3kbits/s speed=   1x    frame= 1860 fps= 15 q=-1.0 size=    4973KiB time=00:02:03.86 bitrate= 328.9kbits/s speed=   1x    frame= 1868 fps= 15 q=-1.0 size=    4992KiB time=00:02:04.40 bitrate= 328.8kbits/s speed=   1x    frame= 1876 fps= 15 q=-1.0 size=    5014KiB time=00:02:04.93 bitrate= 328.8kbits/s speed=   1x    frame= 1883 fps= 15 q=-1.0 size=    5035KiB time=00:02:05.40 bitrate= 328.9kbits/s speed=   1x    frame= 1891 fps= 15 q=-1.0 size=    5059KiB time=00:02:05.93 bitrate= 329.1kbits/s speed=   1x    frame= 1899 fps= 15 q=-1.0 size=    5087KiB time=00:02:06.46 bitrate= 329.5kbits/s speed=   1x    frame= 1907 fps= 15 q=-1.0 size=    5108KiB time=00:02:06.93 bitrate= 329.7kbits/s speed=   1x    frame= 1914 fps= 15 q=-1.0 size=    5131KiB time=00:02:07.46 bitrate= 329.8kbits/s speed=   1x    frame= 1922 fps= 15 q=-1.0 size=    5154KiB time=00:02:08.00 bitrate= 329.9kbits/s speed=   1x    frame= 1930 fps= 15 q=-1.0 size=    5171KiB time=00:02:08.53 bitrate= 329.6kbits/s speed=   1x    frame= 1938 fps= 15 q=-1.0 size=    5190KiB time=00:02:09.00 bitrate= 329.6kbits/s speed=   1x    frame= 1945 fps= 15 q=-1.0 size=    5203KiB time=00:02:09.53 bitrate= 329.0kbits/s speed=   1x    frame= 1953 fps= 15 q=-1.0 size=    5216KiB time=00:02:10.00 bitrate= 328.7kbits/s speed=   1x    frame= 1961 fps= 15 q=-1.0 size=    5260KiB time=00:02:10.60 bitrate= 329.9kbits/s speed=   1x    frame= 1969 fps= 15 q=-1.0 size=    5275KiB time=00:02:11.06 bitrate= 329.7kbits/s speed=   1x    frame= 1977 fps= 15 q=-1.0 size=    5290KiB time=00:02:11.66 bitrate= 329.1kbits/s speed=   1x    frame= 1984 fps= 15 q=-1.0 size=    5305KiB time=00:02:12.13 bitrate= 328.9kbits/s speed=   1x    frame= 1992 fps= 15 q=-1.0 size=    5325KiB time=00:02:12.66 bitrate= 328.8kbits/s speed=   1x    frame= 2000 fps= 15 q=-1.0 size=    5347KiB time=00:02:13.20 bitrate= 328.9kbits/s speed=   1x    frame= 2007 fps= 15 q=-1.0 size=    5365KiB time=00:02:13.66 bitrate= 328.8kbits/s speed=   1x    frame= 2015 fps= 15 q=-1.0 size=    5389KiB time=00:02:14.20 bitrate= 328.9kbits/s speed=   1x    frame= 2023 fps= 15 q=-1.0 size=    5415KiB time=00:02:14.73 bitrate= 329.2kbits/s speed=   1x    frame= 2031 fps= 15 q=-1.0 size=    5437KiB time=00:02:15.20 bitrate= 329.4kbits/s speed=   1x    frame= 2038 fps= 15 q=-1.0 size=    5461KiB time=00:02:15.73 bitrate= 329.6kbits/s speed=   1x    frame= 2046 fps= 15 q=-1.0 size=    5484KiB time=00:02:16.26 bitrate= 329.7kbits/s speed=   1x    frame= 2054 fps= 15 q=-1.0 size=    5500KiB time=00:02:16.80 bitrate= 329.3kbits/s speed=   1x    frame= 2061 fps= 15 q=-1.0 size=    5517KiB time=00:02:17.26 bitrate= 329.3kbits/s speed=   1x    frame= 2069 fps= 15 q=-1.0 size=    5534KiB time=00:02:17.80 bitrate= 329.0kbits/s speed=   1x    frame= 2077 fps= 15 q=-1.0 size=    5580KiB time=00:02:18.33 bitrate= 330.4kbits/s speed=   1x    frame= 2085 fps= 15 q=-1.0 size=    5589KiB time=00:02:18.86 bitrate= 329.7kbits/s speed=   1x    frame= 2092 fps= 15 q=-1.0 size=    5602KiB time=00:02:19.33 bitrate= 329.4kbits/s speed=   1x    frame= 2100 fps= 15 q=-1.0 size=    5617KiB time=00:02:19.86 bitrate= 329.0kbits/s speed=   1x    frame= 2108 fps= 15 q=-1.0 size=    5635KiB time=00:02:20.40 bitrate= 328.8kbits/s speed=   1x    frame= 2116 fps= 15 q=-1.0 size=    5656KiB time=00:02:20.93 bitrate= 328.7kbits/s speed=   1x    frame= 2123 fps= 15 q=-1.0 size=    5678KiB time=00:02:21.40 bitrate= 328.9kbits/s speed=   1x    frame= 2131 fps= 15 q=-1.0 size=    5698KiB time=00:02:21.93 bitrate= 328.9kbits/s speed=   1x    frame= 2139 fps= 15 q=-1.0 size=    5724KiB time=00:02:22.46 bitrate= 329.1kbits/s speed=   1x    frame= 2147 fps= 15 q=-1.0 size=    5749KiB time=00:02:22.93 bitrate= 329.5kbits/s speed=   1x    frame= 2154 fps= 15 q=-1.0 size=    5773KiB time=00:02:23.46 bitrate= 329.6kbits/s speed=   1x    frame= 2162 fps= 15 q=-1.0 size=    5794KiB time=00:02:24.00 bitrate= 329.6kbits/s speed=   1x    frame= 2170 fps= 15 q=-1.0 size=    5815KiB time=00:02:24.53 bitrate= 329.6kbits/s speed=   1x    frame= 2178 fps= 15 q=-1.0 size=    5833KiB time=00:02:25.00 bitrate= 329.5kbits/s speed=   1x    frame= 2185 fps= 15 q=-1.0 size=    5846KiB time=00:02:25.53 bitrate= 329.1kbits/s speed=   1x    frame= 2193 fps= 15 q=-1.0 size=    5862KiB time=00:02:26.06 bitrate= 328.8kbits/s speed=   1x    frame= 2201 fps= 15 q=-1.0 size=    5908KiB time=00:02:26.60 bitrate= 330.1kbits/s speed=   1x    frame= 2208 fps= 15 q=-1.0 size=    5917KiB time=00:02:27.06 bitrate= 329.6kbits/s speed=   1x    frame= 2216 fps= 15 q=-1.0 size=    5932KiB time=00:02:27.60 bitrate= 329.3kbits/s speed=   1x    frame= 2224 fps= 15 q=-1.0 size=    5948KiB time=00:02:28.13 bitrate= 328.9kbits/s speed=   1x    frame= 2232 fps= 15 q=-1.0 size=    5969KiB time=00:02:28.66 bitrate= 328.9kbits/s speed=   1x    frame= 2239 fps= 15 q=-1.0 size=    5984KiB time=00:02:29.13 bitrate= 328.7kbits/s speed=   1x    frame= 2247 fps= 15 q=-1.0 size=    6006KiB time=00:02:29.66 bitrate= 328.7kbits/s speed=   1x    frame= 2255 fps= 15 q=-1.0 size=    6028KiB time=00:02:30.20 bitrate= 328.8kbits/s speed=   1x    frame= 2263 fps= 15 q=-1.0 size=    6054KiB time=00:02:30.66 bitrate= 329.2kbits/s speed=   1x    frame= 2270 fps= 15 q=-1.0 size=    6076KiB time=00:02:31.20 bitrate= 329.2kbits/s speed=   1x    frame= 2278 fps= 15 q=-1.0 size=    6101KiB time=00:02:31.73 bitrate= 329.4kbits/s speed=   1x    frame= 2286 fps= 15 q=-1.0 size=    6123KiB time=00:02:32.26 bitrate= 329.4kbits/s speed=   1x    frame= 2294 fps= 15 q=-1.0 size=    6144KiB time=00:02:32.73 bitrate= 329.6kbits/s speed=   1x    frame= 2301 fps= 15 q=-1.0 size=    6161KiB time=00:02:33.26 bitrate= 329.3kbits/s speed=   1x    frame= 2309 fps= 15 q=-1.0 size=    6180KiB time=00:02:33.80 bitrate= 329.2kbits/s speed=   1x    frame= 2317 fps= 15 q=-1.0 size=    6192KiB time=00:02:34.33 bitrate= 328.7kbits/s speed=   1x    frame= 2325 fps= 15 q=-1.0 size=    6237KiB time=00:02:34.80 bitrate= 330.0kbits/s speed=   1x    frame= 2332 fps= 15 q=-1.0 size=    6248KiB time=00:02:35.33 bitrate= 329.5kbits/s speed=   1x    frame= 2340 fps= 15 q=-1.0 size=    6262KiB time=00:02:35.86 bitrate= 329.1kbits/s speed=   1x    frame= 2348 fps= 15 q=-1.0 size=    6278KiB time=00:02:36.40 bitrate= 328.8kbits/s speed=   1x    frame= 2355 fps= 15 q=-1.0 size=    6295KiB time=00:02:36.86 bitrate= 328.8kbits/s speed=   1x    frame= 2363 fps= 15 q=-1.0 size=    6317KiB time=00:02:37.40 bitrate= 328.8kbits/s speed=   1x    frame= 2371 fps= 15 q=-1.0 size=    6340KiB time=00:02:37.93 bitrate= 328.8kbits/s speed=   1x    frame= 2378 fps= 15 q=-1.0 size=    6360KiB time=00:02:38.40 bitrate= 328.9kbits/s speed=   1x    frame= 2386 fps= 15 q=-1.0 size=    6386KiB time=00:02:38.93 bitrate= 329.2kbits/s speed=   1x    frame= 2394 fps= 15 q=-1.0 size=    6413KiB time=00:02:39.46 bitrate= 329.4kbits/s speed=   1x    frame= 2402 fps= 15 q=-1.0 size=    6436KiB time=00:02:40.00 bitrate= 329.5kbits/s speed=   1x    frame= 2410 fps= 15 q=-1.0 size=    6459KiB time=00:02:40.46 bitrate= 329.7kbits/s speed=   1x    frame= 2417 fps= 15 q=-1.0 size=    6472KiB time=00:02:41.00 bitrate= 329.3kbits/s speed=   1x    frame= 2425 fps= 15 q=-1.0 size=    6489KiB time=00:02:41.53 bitrate= 329.1kbits/s speed=   1x    frame= 2432 fps= 15 q=-1.0 size=    6507KiB time=00:02:42.00 bitrate= 329.0kbits/s speed=   1x    frame= 2440 fps= 15 q=-1.0 size=    6520KiB time=00:02:42.53 bitrate= 328.6kbits/s speed=   1x    frame= 2448 fps= 15 q=-1.0 size=    6565KiB time=00:02:43.06 bitrate= 329.8kbits/s speed=   1x    frame= 2456 fps= 15 q=-1.0 size=    6578KiB time=00:02:43.60 bitrate= 329.4kbits/s speed=   1x    frame= 2464 fps= 15 q=-1.0 size=    6593KiB time=00:02:44.13 bitrate= 329.0kbits/s speed=   1x    frame= 2471 fps= 15 q=-1.0 size=    6605KiB time=00:02:44.60 bitrate= 328.7kbits/s speed=   1x    frame= 2479 fps= 15 q=-1.0 size=    6625KiB time=00:02:45.13 bitrate= 328.7kbits/s speed=   1x    frame= 2487 fps= 15 q=-1.0 size=    6647KiB time=00:02:45.66 bitrate= 328.7kbits/s speed=   1x    frame= 2495 fps= 15 q=-1.0 size=    6669KiB time=00:02:46.20 bitrate= 328.7kbits/s speed=   1x    frame= 2502 fps= 15 q=-1.0 size=    6692KiB time=00:02:46.66 bitrate= 328.9kbits/s speed=   1x    frame= 2510 fps= 15 q=-1.0 size=    6717KiB time=00:02:47.20 bitrate= 329.1kbits/s speed=   1x    frame= 2518 fps= 15 q=-1.0 size=    6740KiB time=00:02:47.73 bitrate= 329.2kbits/s speed=   1x    frame= 2526 fps= 15 q=-1.0 size=    6766KiB time=00:02:48.26 bitrate= 329.4kbits/s speed=   1x    frame= 2533 fps= 15 q=-1.0 size=    6787KiB time=00:02:48.73 bitrate= 329.5kbits/s speed=   1x    frame= 2541 fps= 15 q=-1.0 size=    6803KiB time=00:02:49.26 bitrate= 329.3kbits/s speed=   1x    frame= 2549 fps= 15 q=-1.0 size=    6822KiB time=00:02:49.80 bitrate= 329.1kbits/s speed=   1x    frame= 2556 fps= 15 q=-1.0 size=    6838KiB time=00:02:50.26 bitrate= 329.0kbits/s speed=   1x    frame= 2564 fps= 15 q=-1.0 size=    6883KiB time=00:02:50.66 bitrate= 330.4kbits/s speed=   1x    frame= 2572 fps= 15 q=-1.0 size=    6893KiB time=00:02:51.33 bitrate= 329.6kbits/s speed=   1x    frame= 2580 fps= 15 q=-1.0 size=    6908KiB time=00:02:51.86 bitrate= 329.3kbits/s speed=   1x    frame= 2588 fps= 15 q=-1.0 size=    6922KiB time=00:02:52.33 bitrate= 329.0kbits/s speed=   1x    frame= 2595 fps= 15 q=-1.0 size=    6938KiB time=00:02:52.86 bitrate= 328.8kbits/s speed=   1x    frame= 2603 fps= 15 q=-1.0 size=    6958KiB time=00:02:53.40 bitrate= 328.7kbits/s speed=   1x    frame= 2611 fps= 15 q=-1.0 size=    6981KiB time=00:02:53.93 bitrate= 328.8kbits/s speed=   1x    frame= 2618 fps= 15 q=-1.0 size=    7000KiB time=00:02:54.40 bitrate= 328.8kbits/s speed=   1x    frame= 2626 fps= 15 q=-1.0 size=    7026KiB time=00:02:54.93 bitrate= 329.0kbits/s speed=   1x    frame= 2634 fps= 15 q=-1.0 size=    7051KiB time=00:02:55.46 bitrate= 329.2kbits/s speed=   1x    frame= 2642 fps= 15 q=-1.0 size=    7075KiB time=00:02:56.00 bitrate= 329.3kbits/s speed=   1x    frame= 2649 fps= 15 q=-1.0 size=    7093KiB time=00:02:56.46 bitrate= 329.3kbits/s speed=   1x    frame= 2657 fps= 15 q=-1.0 size=    7115KiB time=00:02:57.00 bitrate= 329.3kbits/s speed=   1x    frame= 2665 fps= 15 q=-1.0 size=    7132KiB time=00:02:57.53 bitrate= 329.1kbits/s speed=   1x    frame= 2673 fps= 15 q=-1.0 size=    7151KiB time=00:02:58.00 bitrate= 329.1kbits/s speed=   1x    frame= 2680 fps= 15 q=-1.0 size=    7166KiB time=00:02:58.53 bitrate= 328.8kbits/s speed=   1x    frame= 2688 fps= 15 q=-1.0 size=    7212KiB time=00:02:59.06 bitrate= 329.9kbits/s speed=   1x    frame= 2696 fps= 15 q=-1.0 size=    7222KiB time=00:02:59.60 bitrate= 329.4kbits/s speed=   1x    frame= 2703 fps= 15 q=-1.0 size=    7234KiB time=00:03:00.06 bitrate= 329.1kbits/s speed=   1x    frame= 2711 fps= 15 q=-1.0 size=    7249KiB time=00:03:00.60 bitrate= 328.8kbits/s speed=   1x    frame= 2719 fps= 15 q=-1.0 size=    7267KiB time=00:03:01.13 bitrate= 328.7kbits/s speed=   1x    frame= 2726 fps= 15 q=-1.0 size=    7287KiB time=00:03:01.60 bitrate= 328.7kbits/s speed=   1x    frame= 2734 fps= 15 q=-1.0 size=    7309KiB time=00:03:02.13 bitrate= 328.7kbits/s speed=   1x    frame= 2742 fps= 15 q=-1.0 size=    7331KiB time=00:03:02.66 bitrate= 328.8kbits/s speed=   1x    frame= 2750 fps= 15 q=-1.0 size=    7357KiB time=00:03:03.20 bitrate= 329.0kbits/s speed=   1x    frame= 2757 fps= 15 q=-1.0 size=    7380KiB time=00:03:03.66 bitrate= 329.2kbits/s speed=   1x    frame= 2765 fps= 15 q=-1.0 size=    7404KiB time=00:03:04.20 bitrate= 329.3kbits/s speed=   1x    frame= 2773 fps= 15 q=-1.0 size=    7427KiB time=00:03:04.73 bitrate= 329.3kbits/s speed=   1x    frame= 2781 fps= 15 q=-1.0 size=    7448KiB time=00:03:05.26 bitrate= 329.3kbits/s speed=   1x    frame= 2789 fps= 15 q=-1.0 size=    7466KiB time=00:03:05.73 bitrate= 329.3kbits/s speed=   1x    frame= 2796 fps= 15 q=-1.0 size=    7483KiB time=00:03:06.26 bitrate= 329.1kbits/s speed=   1x    frame= 2804 fps= 15 q=-1.0 size=    7497KiB time=00:03:06.80 bitrate= 328.8kbits/s speed=   1x    frame= 2812 fps= 15 q=-1.0 size=    7540KiB time=00:03:07.33 bitrate= 329.7kbits/s speed=   1x    frame= 2819 fps= 15 q=-1.0 size=    7550KiB time=00:03:07.80 bitrate= 329.3kbits/s speed=   1x    frame= 2827 fps= 15 q=-1.0 size=    7565KiB time=00:03:08.33 bitrate= 329.1kbits/s speed=   1x    frame= 2835 fps= 15 q=-1.0 size=    7581KiB time=00:03:08.86 bitrate= 328.8kbits/s speed=   1x    frame= 2843 fps= 15 q=-1.0 size=    7600KiB time=00:03:09.33 bitrate= 328.8kbits/s speed=   1x    frame= 2850 fps= 15 q=-1.0 size=    7620KiB time=00:03:09.86 bitrate= 328.8kbits/s speed=   1x    frame= 2858 fps= 15 q=-1.0 size=    7642KiB time=00:03:10.40 bitrate= 328.8kbits/s speed=   1x    frame= 2866 fps= 15 q=-1.0 size=    7665KiB time=00:03:10.93 bitrate= 328.9kbits/s speed=   1x    frame= 2874 fps= 15 q=-1.0 size=    7691KiB time=00:03:11.40 bitrate= 329.2kbits/s speed=   1x    frame= 2881 fps= 15 q=-1.0 size=    7715KiB time=00:03:11.93 bitrate= 329.3kbits/s speed=   1x    frame= 2889 fps= 15 q=-1.0 size=    7734KiB time=00:03:12.46 bitrate= 329.2kbits/s speed=   1x    frame= 2897 fps= 15 q=-1.0 size=    7756KiB time=00:03:13.00 bitrate= 329.2kbits/s speed=   1x    frame= 2905 fps= 15 q=-1.0 size=    7777KiB time=00:03:13.46 bitrate= 329.3kbits/s speed=   1x    frame= 2912 fps= 15 q=-1.0 size=    7794KiB time=00:03:14.00 bitrate= 329.1kbits/s speed=   1x    frame= 2920 fps= 15 q=-1.0 size=    7812KiB time=00:03:14.53 bitrate= 329.0kbits/s speed=   1x    frame= 2928 fps= 15 q=-1.0 size=    7824KiB time=00:03:15.06 bitrate= 328.6kbits/s speed=   1x    frame= 2935 fps= 15 q=-1.0 size=    7868KiB time=00:03:15.53 bitrate= 329.6kbits/s speed=   1x    frame= 2943 fps= 15 q=-1.0 size=    7880KiB time=00:03:16.06 bitrate= 329.2kbits/s speed=   1x    frame= 2951 fps= 15 q=-1.0 size=    7895KiB time=00:03:16.60 bitrate= 329.0kbits/s speed=   1x    frame= 2959 fps= 15 q=-1.0 size=    7911KiB time=00:03:17.13 bitrate= 328.7kbits/s speed=   1x    frame= 2966 fps= 15 q=-1.0 size=    7928KiB time=00:03:17.60 bitrate= 328.7kbits/s speed=   1x    frame= 2974 fps= 15 q=-1.0 size=    7950KiB time=00:03:18.13 bitrate= 328.7kbits/s speed=   1x    frame= 2982 fps= 15 q=-1.0 size=    7973KiB time=00:03:18.66 bitrate= 328.8kbits/s speed=   1x    frame= 2990 fps= 15 q=-1.0 size=    7997KiB time=00:03:19.20 bitrate= 328.9kbits/s speed=   1x    frame= 2997 fps= 15 q=-1.0 size=    8021KiB time=00:03:19.66 bitrate= 329.1kbits/s speed=   1x    frame= 3005 fps= 15 q=-1.0 size=    8044KiB time=00:03:20.20 bitrate= 329.2kbits/s speed=   1x    frame= 3013 fps= 15 q=-1.0 size=    8071KiB time=00:03:20.73 bitrate= 329.4kbits/s speed=   1x    frame= 3021 fps= 15 q=-1.0 size=    8092KiB time=00:03:21.20 bitrate= 329.5kbits/s speed=   1x    frame= 3028 fps= 15 q=-1.0 size=    8107KiB time=00:03:21.73 bitrate= 329.2kbits/s speed=   1x    frame= 3036 fps= 15 q=-1.0 size=    8126KiB time=00:03:22.26 bitrate= 329.1kbits/s speed=   1x    frame= 3044 fps= 15 q=-1.0 size=    8143KiB time=00:03:22.73 bitrate= 329.0kbits/s speed=   1x    frame= 3052 fps= 15 q=-1.0 size=    8189KiB time=00:03:23.20 bitrate= 330.1kbits/s speed=   1x    frame= 3059 fps= 15 q=-1.0 size=    8196KiB time=00:03:23.80 bitrate= 329.5kbits/s speed=   1x    frame= 3067 fps= 15 q=-1.0 size=    8211KiB time=00:03:24.33 bitrate= 329.2kbits/s speed=   1x    frame= 3075 fps= 15 q=-1.0 size=    8226KiB time=00:03:24.86 bitrate= 328.9kbits/s speed=   1x    frame= 3082 fps= 15 q=-1.0 size=    8241KiB time=00:03:25.33 bitrate= 328.8kbits/s speed=   1x    frame= 3090 fps= 15 q=-1.0 size=    8264KiB time=00:03:25.86 bitrate= 328.8kbits/s speed=   1x    frame= 3098 fps= 15 q=-1.0 size=    8284KiB time=00:03:26.40 bitrate= 328.8kbits/s speed=   1x    frame= 3106 fps= 15 q=-1.0 size=    8306KiB time=00:03:26.86 bitrate= 328.9kbits/s speed=   1x    frame= 3113 fps= 15 q=-1.0 size=    8325KiB time=00:03:27.40 bitrate= 328.8kbits/s speed=   1x    frame= 3121 fps= 15 q=-1.0 size=    8351KiB time=00:03:27.93 bitrate= 329.0kbits/s speed=   1x    frame= 3129 fps= 15 q=-1.0 size=    8374KiB time=00:03:28.46 bitrate= 329.1kbits/s speed=   1x    frame= 3136 fps= 15 q=-1.0 size=    8397KiB time=00:03:28.93 bitrate= 329.3kbits/s speed=   1x    frame= 3144 fps= 15 q=-1.0 size=    8420KiB time=00:03:29.46 bitrate= 329.3kbits/s speed=   1x    frame= 3152 fps= 15 q=-1.0 size=    8437KiB time=00:03:30.00 bitrate= 329.1kbits/s speed=   1x    frame= 3160 fps= 15 q=-1.0 size=    8456KiB time=00:03:30.53 bitrate= 329.0kbits/s speed=   1x    frame= 3167 fps= 15 q=-1.0 size=    8471KiB time=00:03:31.00 bitrate= 328.9kbits/s speed=   1x    frame= 3175 fps= 15 q=-1.0 size=    8518KiB time=00:03:31.53 bitrate= 329.9kbits/s speed=   1x    frame= 3183 fps= 15 q=-1.0 size=    8526KiB time=00:03:32.06 bitrate= 329.4kbits/s speed=   1x    frame= 3191 fps= 15 q=-1.0 size=    8540KiB time=00:03:32.53 bitrate= 329.2kbits/s speed=   1x    frame= 3199 fps= 15 q=-1.0 size=    8555KiB time=00:03:33.06 bitrate= 328.9kbits/s speed=   1x    frame= 3206 fps= 15 q=-1.0 size=    8571KiB time=00:03:33.60 bitrate= 328.7kbits/s speed=   1x    frame= 3214 fps= 15 q=-1.0 size=    8593KiB time=00:03:34.13 bitrate= 328.7kbits/s speed=   1x    frame= 3222 fps= 15 q=-1.0 size=    8615KiB time=00:03:34.60 bitrate= 328.9kbits/s speed=   1x    frame= 3229 fps= 15 q=-1.0 size=    8635KiB time=00:03:35.13 bitrate= 328.8kbits/s speed=   1x    frame= 3237 fps= 15 q=-1.0 size=    8661KiB time=00:03:35.66 bitrate= 329.0kbits/s speed=   1x    frame= 3245 fps= 15 q=-1.0 size=    8686KiB time=00:03:36.20 bitrate= 329.1kbits/s speed=   1x    frame= 3253 fps= 15 q=-1.0 size=    8710KiB time=00:03:36.73 bitrate= 329.2kbits/s speed=   1x    frame= 3260 fps= 15 q=-1.0 size=    8731KiB time=00:03:37.20 bitrate= 329.3kbits/s speed=   1x    frame= 3268 fps= 15 q=-1.0 size=    8752KiB time=00:03:37.73 bitrate= 329.3kbits/s speed=   1x    frame= 3276 fps= 15 q=-1.0 size=    8770KiB time=00:03:38.26 bitrate= 329.2kbits/s speed=   1x    frame= 3283 fps= 15 q=-1.0 size=    8783KiB time=00:03:38.73 bitrate= 328.9kbits/s speed=   1x    frame= 3291 fps= 15 q=-1.0 size=    8799KiB time=00:03:39.26 bitrate= 328.7kbits/s speed=   1x    frame= 3299 fps= 15 q=-1.0 size=    8845KiB time=00:03:39.80 bitrate= 329.6kbits/s speed=   1x    frame= 3307 fps= 15 q=-1.0 size=    8856KiB time=00:03:40.33 bitrate= 329.3kbits/s speed=   1x    [out#0/flv @ 0000026416920e80] video:6034KiB audio:2621KiB subtitle:0KiB other streams:0KiB global headers:0KiB muxing overhead: 2.581244%
frame= 3314 fps= 15 q=-1.0 Lsize=    8877KiB time=00:03:40.80 bitrate= 329.4kbits/s speed=   1x    
[aac @ 000002641668ae40] Qavg: 489.768
Exiting normally, received signal 2.
